<svg width="33" height="33" viewBox="0 0 33 33" fill="none" xmlns="http://www.w3.org/2000/svg">
<path fill-rule="evenodd" clip-rule="evenodd" d="M23.8488 21.7855C25.6458 19.5391 26.7203 16.6897 26.7203 13.5893C26.7203 6.33726 20.8413 0.458313 13.5893 0.458313C6.33726 0.458313 0.458313 6.33726 0.458313 13.5893C0.458313 20.8413 6.33726 26.7203 13.5893 26.7203C16.6897 26.7203 19.5391 25.6458 21.7855 23.8488L30.051 32.1143C30.6208 32.6841 31.5445 32.6841 32.1143 32.1143C32.6841 31.5445 32.6841 30.6208 32.1143 30.051L23.8488 21.7855ZM13.5893 23.8169C7.94073 23.8169 3.36167 19.2379 3.36167 13.5893C3.36167 7.94073 7.94073 3.36167 13.5893 3.36167C19.2379 3.36167 23.8169 7.94073 23.8169 13.5893C23.8169 19.2379 19.2379 23.8169 13.5893 23.8169Z" fill="#0F0F0F"/>
</svg>
