<svg width="27" height="33" viewBox="0 0 27 33" fill="none" xmlns="http://www.w3.org/2000/svg">
<path fill-rule="evenodd" clip-rule="evenodd" d="M13.5 16.5C17.5271 16.5 20.7917 12.9089 20.7917 8.47915C20.7917 4.04936 17.5271 0.458313 13.5 0.458313C9.47292 0.458313 6.20833 4.04936 6.20833 8.47915C6.20833 12.9089 9.47292 16.5 13.5 16.5ZM13.5 13.2916C11.0838 13.2916 9.125 11.137 9.125 8.47915C9.125 5.82128 11.0838 3.66665 13.5 3.66665C15.9162 3.66665 17.875 5.82128 17.875 8.47915C17.875 11.137 15.9162 13.2916 13.5 13.2916Z" fill="#0F0F0F"/>
<path fill-rule="evenodd" clip-rule="evenodd" d="M23.8583 19.5752C22.6298 18.3424 20.7289 18.0766 19.211 18.9772C18.9333 19.142 18.6889 19.2928 18.4636 19.4319C17.8658 19.8009 17.4018 20.0872 16.8036 20.333C16.0521 20.6418 15.0801 20.875 13.5 20.875C11.9349 20.875 10.9468 20.6549 10.1839 20.3569C9.50934 20.0934 8.97657 19.7623 8.27457 19.326C8.13766 19.2409 7.99404 19.1517 7.84194 19.0583C6.31898 18.1234 4.36302 18.3407 3.09355 19.6236C2.5398 20.1832 1.89219 20.9069 1.37381 21.6955C0.879629 22.4472 0.375 23.4472 0.375 24.5208V28.1671C0.375 30.5836 2.33404 32.5417 4.75 32.5417H22.25C24.666 32.5417 26.625 30.5836 26.625 28.1671V24.5208C26.625 23.433 26.1069 22.4196 25.6035 21.6611C25.0747 20.8644 24.4159 20.1346 23.8583 19.5752ZM20.6994 21.4856C21.0482 21.2786 21.4888 21.3293 21.7925 21.6341C22.2813 22.1245 22.7931 22.701 23.1733 23.274C23.579 23.8852 23.7083 24.305 23.7083 24.5208V28.1671C23.7083 28.9722 23.0557 29.625 22.25 29.625H4.75C3.9443 29.625 3.29167 28.9722 3.29167 28.1671V24.5208C3.29167 24.3092 3.41634 23.898 3.81102 23.2977C4.1815 22.7341 4.6823 22.1647 5.16678 21.6751C5.47059 21.3681 5.93279 21.3087 6.31609 21.544C6.43673 21.6181 6.5596 21.6948 6.68512 21.7731C7.38869 22.2123 8.17589 22.7038 9.12261 23.0736C10.2815 23.5263 11.6394 23.7917 13.5 23.7917C15.3961 23.7917 16.754 23.5066 17.9121 23.0308C18.7509 22.6862 19.4908 22.2286 20.1439 21.8246C20.3365 21.7055 20.5216 21.5911 20.6994 21.4856Z" fill="#0F0F0F"/>
</svg>
